HIERARCHY
ROOT Bip01_Pelvis
{
	OFFSET 0.000000 0.777098 0.000000
	CHANNELS 6 Xposition Yposition Zposition Zrotation Yrotation Xrotation 
	JOINT BN_Tail_01
	{
		OFFSET -0.000182 0.027754 -0.092053
		CHANNELS 3 Zrotation Yrotation Xrotation
		JOINT BN_Tail_02
		{
			OFFSET -0.000070 0.110061 -0.088292
			CHANNELS 3 Zrotation Yrotation Xrotation
			End Site #name: BN_Tail_03
			{
				OFFSET 0.000055 0.118877 0.068998
			}
		}
	}
	JOINT Bip01_Spine
	{
		OFFSET -0.000059 0.007664 0.172458
		CHANNELS 3 Zrotation Yrotation Xrotation
		JOINT Bip01_R_Thigh
		{
			OFFSET -0.155837 -0.008218 -0.172961
			CHANNELS 3 Zrotation Yrotation Xrotation
			JOINT Bip01_R_Calf
			{
				OFFSET -0.036325 -0.332322 0.123644
				CHANNELS 3 Zrotation Yrotation Xrotation
				JOINT Bip01_R_HorseLink
				{
					OFFSET 0.033051 -0.176272 -0.140556
					CHANNELS 3 Zrotation Yrotation Xrotation
					JOINT Bip01_R_Foot
					{
						OFFSET -0.016272 -0.193599 0.052765
						CHANNELS 3 Zrotation Yrotation Xrotation
						JOINT Bip01_R_Toe0
						{
							OFFSET -0.037145 -0.073653 0.147908
							CHANNELS 3 Zrotation Yrotation Xrotation
							End Site #name: Bip01_R_Toe0Nub
							{
								OFFSET -0.000922 -0.000019 0.003678
							}
						}
					}
				}
			}
		}
		JOINT Bip01_L_Thigh
		{
			OFFSET 0.155844 -0.008898 -0.171872
			CHANNELS 3 Zrotation Yrotation Xrotation
			JOINT Bip01_L_Calf
			{
				OFFSET 0.036519 -0.332323 0.123586
				CHANNELS 3 Zrotation Yrotation Xrotation
				JOINT Bip01_L_HorseLink
				{
					OFFSET -0.033275 -0.176271 -0.140503
					CHANNELS 3 Zrotation Yrotation Xrotation
					JOINT Bip01_L_Foot
					{
						OFFSET 0.016355 -0.193599 0.052739
						CHANNELS 3 Zrotation Yrotation Xrotation
						JOINT Bip01_L_Toe0
						{
							OFFSET 0.037379 -0.073653 0.147849
							CHANNELS 3 Zrotation Yrotation Xrotation
							End Site #name: Bip01_L_Toe0Nub
							{
								OFFSET 0.000927 -0.000019 0.003677
							}
						}
					}
				}
			}
		}
		JOINT Bip01_Spine1
		{
			OFFSET 0.001974 0.108536 0.367310
			CHANNELS 3 Zrotation Yrotation Xrotation
			JOINT Bip01_Neck
			{
				OFFSET 0.000262 0.049851 0.329032
				CHANNELS 3 Zrotation Yrotation Xrotation
				JOINT Bip01_R_Clavicle
				{
					OFFSET -0.034443 -0.080314 -0.202010
					CHANNELS 3 Zrotation Yrotation Xrotation
					JOINT Bip01_R_UpperArm
					{
						OFFSET -0.156118 -0.154817 0.196760
						CHANNELS 3 Zrotation Yrotation Xrotation
						JOINT Bip01_R_Forearm
						{
							OFFSET -0.002483 -0.312774 -0.130851
							CHANNELS 3 Zrotation Yrotation Xrotation
							JOINT Bip01_R_Hand
							{
								OFFSET 0.010478 -0.289945 -0.002435
								CHANNELS 3 Zrotation Yrotation Xrotation
								JOINT Bip01_R_Finger0
								{
									OFFSET -0.010594 -0.029924 0.201571
									CHANNELS 3 Zrotation Yrotation Xrotation
									End Site #name: Bip01_R_Finger0Nub
									{
										OFFSET -0.000190 -0.000538 0.003621
									}
								}
							}
						}
					}
				}
				JOINT Bip01_L_Clavicle
				{
					OFFSET 0.036556 -0.077201 -0.202850
					CHANNELS 3 Zrotation Yrotation Xrotation
					JOINT Bip01_L_UpperArm
					{
						OFFSET 0.156430 -0.154818 0.196511
						CHANNELS 3 Zrotation Yrotation Xrotation
						JOINT Bip01_L_Forearm
						{
							OFFSET 0.002275 -0.312774 -0.130854
							CHANNELS 3 Zrotation Yrotation Xrotation
							JOINT Bip01_L_Hand
							{
								OFFSET -0.010481 -0.289944 -0.002418
								CHANNELS 3 Zrotation Yrotation Xrotation
								JOINT Bip01_L_Finger0
								{
									OFFSET 0.010914 -0.029924 0.201554
									CHANNELS 3 Zrotation Yrotation Xrotation
									End Site #name: Bip01_L_Finger0Nub
									{
										OFFSET 0.000196 -0.000538 0.003620
									}
								}
							}
						}
					}
				}
				JOINT Bip01_Neck1
				{
					OFFSET 0.001273 0.018281 0.106341
					CHANNELS 3 Zrotation Yrotation Xrotation
					JOINT Bip01_Head
					{
						OFFSET 0.000075 0.033553 0.094584
						CHANNELS 3 Zrotation Yrotation Xrotation
						End Site #name: BN_Ear_L_01
						{
							OFFSET 0.171172 0.091035 0.105374
						}
						End Site #name: BN_Ear_R_01
						{
							OFFSET -0.170996 0.091051 0.105644
						}
						JOINT BN_Mouth_01
						{
							OFFSET 0.000109 -0.203475 0.147096
							CHANNELS 3 Zrotation Yrotation Xrotation
							JOINT BN_Tongue_01
							{
								OFFSET 0.000088 -0.068194 0.111289
								CHANNELS 3 Zrotation Yrotation Xrotation
								End Site #name: BN_Tongue_02
								{
									OFFSET 0.000057 -0.020362 0.072269
								}
							}
						}
						End Site #name: Bip01_HeadNub
						{
							OFFSET 0.000359 -0.183252 0.458710
						}
					}
				}
			}
		}
	}
}
MOTION
Frames: 8
Frame Time: 0.041667
0.000000 -0.079610 0.000000 27.926255 -32.095622 -22.894253 -19.893380 -29.515568 -84.621695 -9.526228 -0.014313 -47.505394 19.013344 0.537968 -9.146288 52.787696 20.592908 8.815533 3.618209 -4.166035 -8.907576 19.864898 0.766818 17.383927 55.506882 3.456255 88.297981 -2.860587 -77.575668 2.344757 26.712349 11.968275 10.042853 18.443988 -24.152858 17.028235 10.793790 3.292542 -20.447129 -21.168865 -22.142186 20.643459 -28.473384 -8.591512 76.305305 -6.105337 36.124776 24.302612 -28.512759 2.461668 17.818336 13.066658 34.778672 -9.332818 17.675301 5.033239 -75.084353 -6.996121 -2.569675 -21.446033 1.185537 -4.124767 81.986372 12.294985 29.763484 21.972575 26.091910 12.913371 -27.894310 3.964506 0.316328 -35.922772 -4.226415 -1.209223 -41.391197 24.789587 21.936561 94.242637 16.277433 39.655838 28.313425 -9.006136 29.444266 2.074827 32.507765 -26.451202 -42.251001 3.497900 4.091330 41.454266 -1.473101 3.193673 -21.167572 
0.000065 -0.080690 -0.001347 29.321796 -31.274375 -24.449060 -20.273245 -29.548725 -83.251786 -9.545854 -0.280112 -48.927319 17.573964 -0.390829 -8.500530 52.924130 20.192925 9.428225 3.562853 -4.152981 -9.117636 19.904956 0.693563 17.695706 52.495360 3.521641 86.075432 -0.598228 -75.411865 -0.945533 26.566537 11.835133 10.262604 18.987222 -24.307953 16.300241 10.860865 3.319598 -20.013317 -20.743761 -21.613330 20.510074 -30.155928 -10.723450 76.784800 -5.920189 36.062394 24.465018 -28.184177 2.470318 17.532342 13.381813 34.080603 -8.620652 18.126502 5.133720 -74.937596 -5.934362 -2.345256 -21.487327 1.959641 -3.511549 82.560439 11.315173 30.266720 18.839640 25.528353 12.480579 -27.302905 4.841729 0.263803 -37.129800 -3.766342 -0.995187 -40.883770 25.871200 22.381426 95.126490 15.192808 38.427956 26.978233 -9.028118 29.969043 2.670304 32.481797 -26.828230 -43.050026 3.518380 4.077431 41.549085 -1.399503 3.449159 -20.676797 
0.000073 -0.081584 -0.002647 29.999469 -30.491847 -25.675812 -20.205024 -29.077106 -81.652213 -10.396580 -0.438032 -50.550459 16.681381 -1.553541 -7.734806 53.014670 19.832220 9.939766 3.547124 -4.153735 -9.213631 19.841655 0.662002 17.791993 52.208177 3.974539 85.227492 -1.465766 -75.376121 0.386914 26.354232 11.680631 10.389991 19.168011 -24.408916 16.191473 10.972501 3.365072 -19.408569 -20.126026 -20.808495 20.357427 -31.350906 -12.651721 76.600364 -5.898250 36.334765 24.169773 -27.459181 2.375828 17.707544 13.372856 33.554606 -8.385614 18.518883 5.227454 -74.804953 -5.301159 -2.146861 -21.221521 3.109004 -2.578442 82.990904 9.601101 29.274244 15.028206 25.147605 12.364809 -26.584439 4.688028 0.215996 -38.018693 -3.274412 -0.700873 -40.783881 27.305037 23.110639 95.885616 14.021212 37.216353 25.338459 -8.939684 30.461314 3.774008 32.250292 -26.738529 -44.524236 3.718886 4.231417 41.877397 -1.318533 3.693446 -20.235232 
0.000019 -0.082487 -0.003920 31.020736 -29.856507 -27.037992 -20.075485 -28.134890 -80.040295 -10.691353 -0.659457 -51.923313 15.309278 -2.472013 -6.832540 53.379160 19.521272 10.530272 3.612391 -4.159327 -8.964529 19.866597 0.718780 17.601011 51.949692 3.001559 86.356859 2.615108 -75.682179 -5.834342 26.300616 11.556361 10.574665 19.347116 -24.696041 16.390781 11.219242 3.470540 -18.842481 -19.262352 -20.293179 19.392596 -33.639673 -15.247280 77.618860 -6.003287 37.242485 23.780601 -27.509941 2.080440 18.274565 13.663544 33.464642 -7.987447 19.283616 5.562843 -75.807014 -4.971805 -2.076989 -21.000172 4.396044 -1.631055 84.153095 8.297187 27.733412 12.452540 25.250119 12.599579 -26.553172 5.369850 0.259598 -38.941175 -3.327548 -0.787924 -40.432811 28.866961 23.865416 96.593789 12.904885 35.551651 24.097874 -8.923249 30.372099 3.524391 32.719261 -26.375427 -45.014800 3.856879 4.324210 41.849918 -1.149090 4.043614 -19.272930 
-0.000114 -0.083734 -0.005138 30.729168 -29.922757 -27.683924 -20.003910 -28.402265 -78.525344 -9.834483 -0.779286 -52.590305 15.437624 -2.979976 -5.948472 53.516459 19.275895 10.974395 3.608567 -4.163396 -9.019917 20.300672 0.660645 18.019262 51.319577 3.535382 85.146440 3.087400 -76.667208 -6.433713 26.270288 11.508724 10.823235 19.490013 -24.743390 16.222290 11.561771 3.619479 -18.502329 -19.555893 -20.102067 20.170335 -34.649208 -18.154739 76.084040 -5.971053 37.316799 23.740483 -26.188763 2.232383 18.168683 13.377743 32.528761 -7.877898 19.701155 5.669519 -75.518010 -4.480040 -1.874278 -20.800823 5.518478 -0.777772 84.890659 6.929237 26.176348 9.636592 24.607015 11.992840 -25.875831 5.368874 0.117693 -39.837659 -2.764601 -0.349260 -40.403993 30.456119 24.637579 97.510790 12.005342 34.358013 23.077997 -8.790247 30.145449 4.503247 31.567192 -26.164910 -45.436747 4.034717 4.463124 41.615310 -1.066969 3.559783 -18.513718 
-0.000318 -0.083197 -0.006296 31.509178 -29.471236 -28.582752 -20.517092 -29.247965 -76.962446 -8.489848 -1.000858 -53.672808 14.639838 -3.698597 -5.531349 53.595347 18.959538 11.520061 3.588957 -4.112676 -8.787504 20.349351 0.645438 18.119216 52.132438 4.016368 85.026554 3.925112 -77.950265 -7.386624 26.109409 11.435057 11.077580 19.339291 -24.766734 16.547248 11.729246 3.680920 -18.013011 -18.784290 -19.749778 19.162959 -37.233772 -20.857846 77.491822 -6.199472 38.314584 23.561918 -27.079678 1.558521 18.748622 13.825967 32.947926 -7.539330 20.567945 5.990947 -76.296263 -4.095634 -1.860404 -20.757926 6.603775 -0.058545 85.948994 5.906887 25.290796 6.766015 25.208293 12.825203 -26.147132 6.043319 0.229145 -39.966127 -2.807575 -0.549745 -40.177323 31.938832 25.335953 98.022000 11.504018 32.946990 23.190511 -8.943862 30.571516 3.761792 32.283864 -25.365378 -45.775636 3.871100 4.303975 41.594755 -0.994907 3.354026 -17.927104 
-0.000564 -0.083921 -0.007370 31.353153 -29.684189 -28.535502 -20.871805 -30.093126 -75.308975 -6.983736 -1.106463 -55.265873 14.664193 -3.795836 -5.253146 53.840365 18.956752 11.728564 3.675965 -4.127917 -8.480601 20.372290 0.603031 18.291374 51.225687 4.527585 83.631094 4.557638 -78.014428 -8.303258 26.243716 11.471638 11.077682 19.489124 -24.850092 16.437260 11.729478 3.666207 -17.416985 -18.434599 -19.816902 18.420118 -38.530622 -21.751298 78.631008 -6.443453 38.874120 23.067537 -25.637524 1.466797 18.897497 13.479937 31.982166 -7.470762 20.895484 6.046731 -75.802325 -3.436205 -1.661014 -20.834930 7.229895 0.405998 86.439868 5.020257 23.753419 4.987089 24.752707 12.279179 -25.819977 6.445625 0.058945 -40.364915 -2.667142 -0.266688 -40.142724 33.657269 26.221980 98.755727 11.127028 32.160026 23.259434 -8.860162 30.340239 4.538206 31.648867 -25.487487 -45.958612 4.560578 4.918270 40.798814 -0.928588 2.837658 -17.004861 
-0.000809 -0.082828 -0.008372 31.947754 -28.854610 -29.228210 -20.865087 -29.983310 -74.675704 -7.467285 -1.177863 -55.664229 14.174290 -4.626528 -5.083301 53.728309 18.622581 12.270762 3.643354 -4.093899 -8.445816 20.490370 0.560033 18.528460 52.547184 4.888161 84.076093 6.281593 -80.038458 -10.128856 25.956229 11.418744 11.470790 19.248047 -24.866833 16.871282 11.847211 3.720345 -17.622899 -18.477553 -19.552866 18.825834 -40.151459 -23.820447 79.062483 -6.577641 39.472261 23.350142 -27.449733 1.326297 19.373827 14.124074 33.146806 -7.303406 20.764017 6.188126 -77.244054 -3.736288 -1.811220 -20.724784 8.057651 0.988773 86.634037 4.404190 23.662196 2.558420 25.565668 12.980787 -26.771645 7.296321 0.243782 -40.147079 -2.999863 -0.701926 -40.128180 34.798185 26.643915 99.230863 10.668702 31.158675 22.782947 -8.930684 30.467593 3.488275 32.677714 -24.679515 -46.153745 4.728628 5.052830 40.661467 -0.849901 2.726532 -16.449148 
